<svg width="17" height="17" viewBox="0 0 17 17" fill="none" xmlns="http://www.w3.org/2000/svg">
<path d="M16.5006 2.9004C17.1647 2.23639 17.1647 1.16069 16.5006 0.496679C16.1712 0.164675 15.7356 0 15.3 0C14.8644 0 14.4298 0.166002 14.0983 0.498009L8.5 6.09296L2.90222 0.499336C2.57019 0.164675 2.13509 0 1.7 0C1.26491 0 0.830344 0.164675 0.498047 0.499336C-0.166016 1.16335 -0.166016 2.23904 0.498047 2.90305L6.09742 8.50199L0.498047 14.0983C-0.166016 14.7623 -0.166016 15.838 0.498047 16.502C1.16211 17.166 2.23789 17.166 2.90195 16.502L8.5 10.9004L14.0994 16.4993C14.7634 17.1633 15.8392 17.1633 16.5033 16.4993C17.1673 15.8353 17.1673 14.7596 16.5033 14.0956L10.9039 8.49668L16.5006 2.9004Z" fill="white"/>
</svg>
